<?xml version="1.0" encoding="utf-8"?>
<!-- Generator: Adobe Illustrator 23.1.0, SVG Export Plug-In . SVG Version: 6.00 Build 0)  -->
<svg version="1.1" id="Layer_1" xmlns="http://www.w3.org/2000/svg" xmlns:xlink="http://www.w3.org/1999/xlink" x="0px" y="0px"
	 viewBox="0 0 47 19.1" style="enable-background:new 0 0 47 19.1;" xml:space="preserve">
<style type="text/css">
	.st0{fill:#FFFFFF;stroke:#000000;stroke-width:2;stroke-miterlimit:10;}
	.st1{fill:none;stroke:#000000;stroke-miterlimit:10;}
	.st2{display:none;}
	.st3{enable-background:new    ;}
</style>
<path class="st0" d="M9.2,15.6"/>
<path class="st0" d="M4-4"/>
<path class="st1" d="M23.7,1.1"/>
<polygon class="st2" points="-28,4 -34.5,1 -35.9,4 -28,4 "/>
<polygon class="st2" points="-53.9,36.4 -47.4,39.4 -45.8,36 -53.7,36 "/>
<g class="st3">
	<path d="M22.1,17.7h-3.6l-6-8.8h-0.1v8.8H8.1V1.5h3.6l5.9,8.7h0.1V1.5h4.3V17.7z"/>
</g>
<g class="st3">
	<path d="M25.6,1.7h7c1.2,0,2.2,0.2,3.1,0.5c0.8,0.3,1.5,0.8,1.9,1.4s0.6,1.3,0.7,2.2c0,0.6-0.1,1.1-0.4,1.6
		c-0.3,0.5-0.6,0.9-1.1,1.2c-0.5,0.3-1,0.6-1.6,0.7v0.2c0.7,0,1.3,0.2,1.9,0.5s1,0.8,1.4,1.4c0.3,0.6,0.5,1.2,0.5,2
		c0,0.9-0.2,1.7-0.7,2.4c-0.5,0.7-1.1,1.2-2,1.6s-1.9,0.6-3,0.6h-7.5V1.7z M31.8,8.3c0.6,0,1.1-0.1,1.5-0.4s0.6-0.7,0.6-1.2
		s-0.2-0.9-0.5-1.2c-0.4-0.3-0.8-0.4-1.4-0.4h-2v3.2H31.8z M32.1,14.5c0.8,0,1.3-0.1,1.7-0.4c0.4-0.3,0.6-0.7,0.6-1.3
		c0-0.6-0.2-1-0.6-1.4S32.8,11,32.1,11h-2.2v3.5H32.1z"/>
</g>
</svg>
